<?xml version="1.0" encoding="utf-8"?>
<!-- Generator: Adobe Illustrator 26.0.1, SVG Export Plug-In . SVG Version: 6.00 Build 0)  -->
<svg version="1.1" id="Layer_1" xmlns="http://www.w3.org/2000/svg" xmlns:xlink="http://www.w3.org/1999/xlink" x="0px" y="0px"
	 viewBox="0 0 351.84 500" style="enable-background:new 0 0 351.84 500;" xml:space="preserve">
<style type="text/css">
	.st0{fill-rule:evenodd;clip-rule:evenodd;fill:#656363;}
</style>
<path class="st0" d="M167.29,0.2c-3.75,0.29-7.5,0.57-11.26,0.85c-8.42,1.56-16.83,3.12-25.26,4.67
	C97.75,16.15,72.1,30.71,50.65,52.42C0.04,103.65-17.61,197.25,25.39,271.59c20.9,36.13,47.74,65.37,71.96,97.85
	c16.39,21.99,31.83,44.37,45,69.63c7.34,14.07,13.45,47.84,23.24,57.21c2.52,2.41,7.08,4.4,12.73,3.5
	c5.15-0.81,8.53-3.79,10.73-7.54c5.13-14.32,10.26-28.66,15.38-42.98c10.13-22.41,22.07-41.66,35.45-60.61
	c36.99-52.37,85-95.26,105.61-163.76C382.71,101.18,281.37-0.46,167.29,0.2z M217.49,226.06c-9.73,8.32-20.95,11.56-36.2,14.75
	c-43.82,9.19-86.16-45.41-69.41-88.2c8.03-20.49,21.91-34.43,42.99-41.81c6.37-1.06,12.73-2.12,19.1-3.19
	C240.53,107.82,263.37,186.86,217.49,226.06z"/>
</svg>
